# xmcd
#
# Track frame offsets: 
#        150
#        10264
#        25668
#        37172
#        50057
#        64071
#        72883
#        85281
#        98353
#        111417
#        122706
#        134734
#        143934
#        154733
#        167495
#        178465
#        190192
#        201240
#        213413
#        223138
#        233670
#        243167
#        256190
#        267856
#        277276
#        289050
#        298830
#        309750
#
# Disc length: 4284 seconds
#
# Revision: 1
# Processed by: cddbd v1.5.2PL0 Copyright (c) Steve Scherf et al.
# Submitted via: ExactAudioCopy v0.95b4
#
DISCID=b110ba1c
DTITLE=Slim Whitman - The Essential - 2
DYEAR=2009
DGENRE=Country
TTITLE0=Where The Lilacs Grow [1973]
TTITLE1=Puff (The Magic Dragon) [1979]
TTITLE2=I Just Thought I'd Call To Say I Love You [1973]
TTITLE3=Angel In A Apron [1975]
TTITLE4=Foolish Question [1973]
TTITLE5=I'll Never Let You Cry [1968]
TTITLE6=A Perfect Day [1979]
TTITLE7=A World Worth Living In [1970]
TTITLE8=Guess Who [1970]
TTITLE9=One For You, One For Me [1971]
TTITLE10=Come Take My Hand [1970]
TTITLE11=If Wishes Were Horses [1971]
TTITLE12=Lavender Blue (Dilly Dilly) [1980]
TTITLE13=You're Coming Home [1970]
TTITLE14=Got The All Overs For You (All Over Me) [1973]
TTITLE15=Rainbows Are Back In Style [1968]
TTITLE16=Bandera Waltz [1967]
TTITLE17=It's Your Day Today [1976]
TTITLE18=You, You, You [1963]
TTITLE19=Cora Lee [1977]
TTITLE20=Chime Bells [1978]
TTITLE21=Follow It [1971]
TTITLE22=Just A Few Sweet Kisses [1968]
TTITLE23=In A Hundred Years [1962]
TTITLE24=Wheel of Hurt [1978]
TTITLE25=Margie [1979]
TTITLE26=Irresistible [1969]
TTITLE27=Happy Anniversary [1974]
EXTD=YEAR: 2009
EXTT0=
EXTT1=
EXTT2=
EXTT3=
EXTT4=
EXTT5=
EXTT6=
EXTT7=
EXTT8=
EXTT9=
EXTT10=
EXTT11=
EXTT12=
EXTT13=
EXTT14=
EXTT15=
EXTT16=
EXTT17=
EXTT18=
EXTT19=
EXTT20=
EXTT21=
EXTT22=
EXTT23=
EXTT24=
EXTT25=
EXTT26=
EXTT27=
PLAYORDER=
